<svg width="192" height="66" viewBox="0 0 192 66" fill="none" xmlns="http://www.w3.org/2000/svg">
<g clip-path="url(#clip0_32_475)">
<rect width="192" height="66" rx="10" fill="#FBF7E7"/>
<g clip-path="url(#clip1_32_475)">
<path d="M163.571 14.4286H156.429L153.943 39.1429C153.84 39.8242 153.493 40.4452 152.968 40.8914C152.443 41.3377 151.775 41.5792 151.086 41.5714H133.086C132.463 41.6039 131.846 41.4316 131.33 41.0808C130.814 40.73 130.427 40.2199 130.229 39.6286L126.429 28.2C126.287 27.7703 126.249 27.3132 126.319 26.8661C126.388 26.4191 126.563 25.9949 126.829 25.6286C127.105 25.2391 127.475 24.9252 127.904 24.7155C128.334 24.5059 128.808 24.4072 129.286 24.4286H155.429" stroke="#664229" stroke-width="2.85714" stroke-linecap="round" stroke-linejoin="round"/>
<path d="M133.571 51.5714C134.36 51.5714 135 50.9318 135 50.1429C135 49.3539 134.36 48.7143 133.571 48.7143C132.782 48.7143 132.143 49.3539 132.143 50.1429C132.143 50.9318 132.782 51.5714 133.571 51.5714Z" stroke="#664229" stroke-width="2.85714" stroke-linecap="round" stroke-linejoin="round"/>
<path d="M152.143 51.5714C152.932 51.5714 153.571 50.9318 153.571 50.1429C153.571 49.3539 152.932 48.7143 152.143 48.7143C151.354 48.7143 150.714 49.3539 150.714 50.1429C150.714 50.9318 151.354 51.5714 152.143 51.5714Z" stroke="#664229" stroke-width="2.85714" stroke-linecap="round" stroke-linejoin="round"/>
</g>
</g>
<defs>
<clipPath id="clip0_32_475">
<rect width="192" height="66" rx="10" fill="white"/>
</clipPath>
<clipPath id="clip1_32_475">
<rect width="40" height="40" fill="white" transform="translate(125 13)"/>
</clipPath>
</defs>
</svg>
