<svg width="192" height="49" viewBox="0 0 192 49" fill="none" xmlns="http://www.w3.org/2000/svg">
<path d="M168.227 10H144" stroke="#000001" stroke-linecap="round" stroke-linejoin="round"/>
<path d="M168.227 18.8187H144" stroke="#000001" stroke-linecap="round" stroke-linejoin="round"/>
<path d="M168.227 27.6374H144" stroke="#000001" stroke-linecap="round" stroke-linejoin="round"/>
<path d="M34.3646 8.90385L35.3239 6.42769C35.4856 6.00845 35.7702 5.64784 36.1404 5.39309C36.5106 5.13834 36.9491 5.00133 37.3985 5H39.2277C39.6771 5.00133 40.1156 5.13834 40.4858 5.39309C40.8559 5.64784 41.1406 6.00845 41.3023 6.42769L42.2616 8.90385L45.5185 10.7777L48.1508 10.3762C48.5891 10.3167 49.0352 10.3888 49.4324 10.5834C49.8296 10.7781 50.16 11.0864 50.3816 11.4692L51.2739 13.0308C51.5025 13.4197 51.6079 13.8688 51.576 14.3189C51.5441 14.7689 51.3766 15.1987 51.0954 15.5515L49.4669 17.6262V21.3738L51.14 23.4485C51.4212 23.8013 51.5887 24.2311 51.6206 24.6811C51.6525 25.1312 51.5471 25.5803 51.3185 25.9692L50.4262 27.5308C50.2046 27.9136 49.8742 28.2219 49.477 28.4166C49.0798 28.6112 48.6337 28.6833 48.1954 28.6238L45.5631 28.2223L42.3062 30.0962L41.3469 32.5723C41.1852 32.9915 40.9005 33.3522 40.5304 33.6069C40.1602 33.8617 39.7217 33.9987 39.2723 34H37.3985C36.9491 33.9987 36.5106 33.8617 36.1404 33.6069C35.7702 33.3522 35.4856 32.9915 35.3239 32.5723L34.3646 30.0962L31.1077 28.2223L28.4754 28.6238C28.0371 28.6833 27.591 28.6112 27.1938 28.4166C26.7966 28.2219 26.4662 27.9136 26.2446 27.5308L25.3523 25.9692C25.1237 25.5803 25.0183 25.1312 25.0502 24.6811C25.082 24.2311 25.2496 23.8013 25.5308 23.4485L27.1592 21.3738V17.6262L25.4862 15.5515C25.205 15.1987 25.0374 14.7689 25.0056 14.3189C24.9737 13.8688 25.0791 13.4197 25.3077 13.0308L26.2 11.4692C26.4216 11.0864 26.752 10.7781 27.1492 10.5834C27.5464 10.3888 27.9925 10.3167 28.4308 10.3762L31.0631 10.7777L34.3646 8.90385ZM33.8516 19.5C33.8516 20.3824 34.1132 21.245 34.6035 21.9787C35.0937 22.7124 35.7905 23.2842 36.6057 23.6219C37.421 23.9596 38.318 24.048 39.1835 23.8758C40.0489 23.7037 40.8439 23.2787 41.4679 22.6548C42.0918 22.0308 42.5168 21.2359 42.6889 20.3704C42.8611 19.5049 42.7727 18.6079 42.435 17.7926C42.0973 16.9774 41.5255 16.2806 40.7918 15.7904C40.0581 15.3001 39.1955 15.0385 38.3131 15.0385C37.1298 15.0385 35.995 15.5085 35.1583 16.3452C34.3216 17.1819 33.8516 18.3167 33.8516 19.5V19.5Z" stroke="#664229" stroke-width="2.23077" stroke-linecap="round" stroke-linejoin="round"/>
</svg>
