<svg width="28" height="28" viewBox="0 0 28 28" fill="none" xmlns="http://www.w3.org/2000/svg">
<path d="M19 3.00003H22C22.5304 3.00003 23.0391 3.21074 23.4142 3.58582C23.7893 3.96089 24 4.4696 24 5.00003V25C24 25.5305 23.7893 26.0392 23.4142 26.4142C23.0391 26.7893 22.5304 27 22 27H6C5.46957 27 4.96086 26.7893 4.58579 26.4142C4.21071 26.0392 4 25.5305 4 25V5.00003C4 4.4696 4.21071 3.96089 4.58579 3.58582C4.96086 3.21074 5.46957 3.00003 6 3.00003H9" stroke="#000001" stroke-width="1.35714" stroke-linecap="round" stroke-linejoin="round"/>
<path d="M17 1H11C9.89543 1 9 1.89543 9 3V4C9 5.10457 9.89543 6 11 6H17C18.1046 6 19 5.10457 19 4V3C19 1.89543 18.1046 1 17 1Z" stroke="#000001" stroke-width="1.35714" stroke-linecap="round" stroke-linejoin="round"/>
<path d="M9 11H19" stroke="#000001" stroke-width="1.35714" stroke-linecap="round" stroke-linejoin="round"/>
<path d="M9 16H19" stroke="#000001" stroke-width="1.35714" stroke-linecap="round" stroke-linejoin="round"/>
<path d="M9 21H19" stroke="#000001" stroke-width="1.35714" stroke-linecap="round" stroke-linejoin="round"/>
</svg>
