<svg width="84" height="84" viewBox="0 0 84 84" fill="none" xmlns="http://www.w3.org/2000/svg">
<path d="M41.9098 83.82C64.796 83.82 83.82 64.8371 83.82 41.91C83.82 19.0239 64.7549 0 41.8688 0C18.9415 0 0 19.0239 0 41.91C0 64.8371 18.9827 83.82 41.9098 83.82ZM41.9098 18.2432C49.7577 18.2432 56.0031 25.146 56.0031 33.4459C56.0031 42.2797 49.7988 49.0183 41.9098 48.9361C33.9799 48.8538 27.8167 42.2797 27.8167 33.4459C27.7345 25.146 34.0209 18.2432 41.9098 18.2432ZM66.8914 66.2342L67.0147 66.7683C60.6872 73.5067 51.319 77.3691 41.9098 77.3691C32.4596 77.3691 23.0914 73.5067 16.764 66.7683L16.8872 66.2342C20.4618 61.3036 29.2548 55.9211 41.9098 55.9211C54.5239 55.9211 63.3579 61.3036 66.8914 66.2342Z" fill="black"/>
</svg>
