<svg width="37" height="40" viewBox="0 0 37 40" fill="none" xmlns="http://www.w3.org/2000/svg">
<path d="M13.6943 6.875L14.8921 3.78286C15.0941 3.25932 15.4495 2.809 15.9118 2.49088C16.3741 2.17275 16.9217 2.00166 17.4828 2H19.7671C20.3283 2.00166 20.8758 2.17275 21.3381 2.49088C21.8004 2.809 22.1558 3.25932 22.3578 3.78286L23.5557 6.875L27.6228 9.215L30.91 8.71357C31.4573 8.63928 32.0144 8.72938 32.5104 8.97243C33.0064 9.21548 33.419 9.6005 33.6957 10.0786L34.81 12.0286C35.0955 12.5143 35.2271 13.0751 35.1873 13.6371C35.1475 14.1991 34.9382 14.7358 34.5871 15.1764L32.5535 17.7671V22.4471L34.6428 25.0379C34.9939 25.4785 35.2032 26.0152 35.243 26.5772C35.2828 27.1392 35.1512 27.7 34.8657 28.1857L33.7514 30.1357C33.4747 30.6138 33.0621 30.9988 32.5661 31.2419C32.0701 31.4849 31.513 31.575 30.9657 31.5007L27.6785 30.9993L23.6114 33.3393L22.4135 36.4314C22.2115 36.955 21.8561 37.4053 21.3938 37.7234C20.9316 38.0415 20.384 38.2126 19.8228 38.2143H17.4828C16.9217 38.2126 16.3741 38.0415 15.9118 37.7234C15.4495 37.4053 15.0941 36.955 14.8921 36.4314L13.6943 33.3393L9.62711 30.9993L6.33997 31.5007C5.79262 31.575 5.23554 31.4849 4.73953 31.2419C4.24351 30.9988 3.83094 30.6138 3.55425 30.1357L2.43997 28.1857C2.15444 27.7 2.02288 27.1392 2.06267 26.5772C2.10246 26.0152 2.31172 25.4785 2.66283 25.0379L4.6964 22.4471V17.7671L2.60711 15.1764C2.256 14.7358 2.04674 14.1991 2.00696 13.6371C1.96717 13.0751 2.09872 12.5143 2.38425 12.0286L3.49854 10.0786C3.77523 9.6005 4.18779 9.21548 4.68381 8.97243C5.17983 8.72938 5.73691 8.63928 6.28425 8.71357L9.5714 9.215L13.6943 6.875ZM13.0535 20.1071C13.0535 21.2091 13.3803 22.2862 13.9925 23.2025C14.6047 24.1187 15.4748 24.8328 16.4929 25.2545C17.5109 25.6762 18.6311 25.7865 19.7119 25.5715C20.7927 25.3565 21.7854 24.8259 22.5646 24.0467C23.3437 23.2676 23.8744 22.2748 24.0893 21.1941C24.3043 20.1133 24.194 18.9931 23.7723 17.975C23.3506 16.957 22.6365 16.0869 21.7203 15.4747C20.8041 14.8625 19.7269 14.5357 18.625 14.5357C17.1473 14.5357 15.7302 15.1227 14.6854 16.1675C13.6405 17.2124 13.0535 18.6295 13.0535 20.1071V20.1071Z" stroke="#664229" stroke-width="2.78571" stroke-linecap="round" stroke-linejoin="round"/>
</svg>
